# xmcd CD database file
#
# Track frame offsets:
#	150
#	17237
#	34797
#	50990
#	67217
#	85395
#	109790
#	125800
#	145290
#	159500
#	182912
#	200977
#	221850
#
# Disc length: 3170 seconds
#
# Revision: 1
# Processed by: cddbd v1.4PL0 Copyright (c) Steve Scherf et al.
# Submitted via: CDex 1.50
#
DISCID=d90c600d
DTITLE=Ann Sweeten - Reflections
DYEAR=1900
DGENRE=New Age
TTITLE0=Mohegan Breeze
TTITLE1=Cafe Window
TTITLE2=Quiet Goodbyes
TTITLE3=Swans On The Susquehannah
TTITLE4=Ripples In The Harbor
TTITLE5=Rainswept Slumber
TTITLE6=Roof With A View
TTITLE7=Lucaya
TTITLE8=Resolution
TTITLE9=Mirage
TTITLE10=Reflections
TTITLE11=Watercolors
TTITLE12=An Early Fall
EXTD=
EXTT0=
EXTT1=
EXTT2=
EXTT3=
EXTT4=
EXTT5=
EXTT6=
EXTT7=
EXTT8=
EXTT9=
EXTT10=
EXTT11=
EXTT12=
PLAYORDER=
